<?xml version="1.0" encoding="UTF-8"?>
<svg xmlns="http://www.w3.org/2000/svg" viewBox="0 0 1200 675" width="1200" height="675">
  <style>
    .bg { fill: #FAFAF7; }
    .accent { fill: #A32D2D; }
    .text { fill: #1A1C20; }
    .text-2 { fill: #5C5E64; }
    .text-3 { fill: #8E9096; }
    .serif { font-family: 'Source Serif 4', Georgia, serif; font-weight: 500; }
    .sans { font-family: 'Inter', -apple-system, system-ui, sans-serif; }
    .mono { font-family: 'IBM Plex Mono', monospace; }
    .bold { font-weight: 700; }
  </style>
  <rect class="bg" width="1200" height="675"/>

  <text x="60" y="60" class="mono accent" font-size="13" letter-spacing="1.5" text-transform="uppercase">BIG TECH FILES · MATRYCA</text>

  
  <text x="60" y="140" class="serif text" font-size="42" letter-spacing="-0.5">
    33 documented cases.
  </text>
  <text x="60" y="185" class="serif text" font-size="42" letter-spacing="-0.5">
    2010–2025. One pattern.
  </text>
  <text x="60" y="225" class="mono text-2" font-size="14">Each dot = one case. Color = company. Horizontal axis = year of disclosure.</text>

  <line x1="80" y1="420" x2="1120" y2="420" stroke="#8E9096" stroke-width="1"/>
  <text x="80.0" y="445" class="mono text-2" font-size="12" text-anchor="middle">2010</text><text x="218.66666666666666" y="445" class="mono text-2" font-size="12" text-anchor="middle">2012</text><text x="357.3333333333333" y="445" class="mono text-2" font-size="12" text-anchor="middle">2014</text><text x="496.0" y="445" class="mono text-2" font-size="12" text-anchor="middle">2016</text><text x="634.6666666666666" y="445" class="mono text-2" font-size="12" text-anchor="middle">2018</text><text x="773.3333333333333" y="445" class="mono text-2" font-size="12" text-anchor="middle">2020</text><text x="912.0" y="445" class="mono text-2" font-size="12" text-anchor="middle">2022</text><text x="1050.6666666666665" y="445" class="mono text-2" font-size="12" text-anchor="middle">2024</text>
  <circle cx="80.0" cy="380" r="7" fill="#0d9488"/><text x="80.0" y="384" class="mono" font-size="8" fill="white" text-anchor="middle">01</text><circle cx="218.66666666666666" cy="380" r="7" fill="#0d9488"/><text x="218.66666666666666" y="384" class="mono" font-size="8" fill="white" text-anchor="middle">02</text><circle cx="357.3333333333333" cy="380" r="7" fill="#4f46e5"/><text x="357.3333333333333" y="384" class="mono" font-size="8" fill="white" text-anchor="middle">06</text><circle cx="357.3333333333333" cy="358" r="7" fill="#d97706"/><text x="357.3333333333333" y="362" class="mono" font-size="8" fill="white" text-anchor="middle">04</text><circle cx="565.3333333333333" cy="380" r="7" fill="#475569"/><text x="565.3333333333333" y="384" class="mono" font-size="8" fill="white" text-anchor="middle">01</text><circle cx="565.3333333333333" cy="358" r="7" fill="#d97706"/><text x="565.3333333333333" y="362" class="mono" font-size="8" fill="white" text-anchor="middle">05</text><circle cx="565.3333333333333" cy="336" r="7" fill="#d97706"/><text x="565.3333333333333" y="340" class="mono" font-size="8" fill="white" text-anchor="middle">06</text><circle cx="634.6666666666666" cy="380" r="7" fill="#4f46e5"/><text x="634.6666666666666" y="384" class="mono" font-size="8" fill="white" text-anchor="middle">02</text><circle cx="634.6666666666666" cy="358" r="7" fill="#0d9488"/><text x="634.6666666666666" y="362" class="mono" font-size="8" fill="white" text-anchor="middle">03</text><circle cx="634.6666666666666" cy="336" r="7" fill="#0d9488"/><text x="634.6666666666666" y="340" class="mono" font-size="8" fill="white" text-anchor="middle">04</text><circle cx="634.6666666666666" cy="314" r="7" fill="#0d9488"/><text x="634.6666666666666" y="318" class="mono" font-size="8" fill="white" text-anchor="middle">06</text><circle cx="704.0" cy="380" r="7" fill="#4f46e5"/><text x="704.0" y="384" class="mono" font-size="8" fill="white" text-anchor="middle">03</text><circle cx="704.0" cy="358" r="7" fill="#475569"/><text x="704.0" y="362" class="mono" font-size="8" fill="white" text-anchor="middle">02</text><circle cx="704.0" cy="336" r="7" fill="#d97706"/><text x="704.0" y="340" class="mono" font-size="8" fill="white" text-anchor="middle">01</text><circle cx="704.0" cy="314" r="7" fill="#d97706"/><text x="704.0" y="318" class="mono" font-size="8" fill="white" text-anchor="middle">02</text><circle cx="773.3333333333333" cy="380" r="7" fill="#0d9488"/><text x="773.3333333333333" y="384" class="mono" font-size="8" fill="white" text-anchor="middle">05</text><circle cx="773.3333333333333" cy="358" r="7" fill="#A32D2D"/><text x="773.3333333333333" y="362" class="mono" font-size="8" fill="white" text-anchor="middle">05</text><circle cx="773.3333333333333" cy="336" r="7" fill="#A32D2D"/><text x="773.3333333333333" y="340" class="mono" font-size="8" fill="white" text-anchor="middle">06</text><circle cx="842.6666666666666" cy="380" r="7" fill="#4f46e5"/><text x="842.6666666666666" y="384" class="mono" font-size="8" fill="white" text-anchor="middle">04</text><circle cx="842.6666666666666" cy="358" r="7" fill="#4f46e5"/><text x="842.6666666666666" y="362" class="mono" font-size="8" fill="white" text-anchor="middle">05</text><circle cx="842.6666666666666" cy="336" r="7" fill="#475569"/><text x="842.6666666666666" y="340" class="mono" font-size="8" fill="white" text-anchor="middle">03</text><circle cx="842.6666666666666" cy="314" r="7" fill="#A32D2D"/><text x="842.6666666666666" y="318" class="mono" font-size="8" fill="white" text-anchor="middle">02</text><circle cx="842.6666666666666" cy="292" r="7" fill="#A32D2D"/><text x="842.6666666666666" y="296" class="mono" font-size="8" fill="white" text-anchor="middle">03</text><circle cx="912.0" cy="380" r="7" fill="#A32D2D"/><text x="912.0" y="384" class="mono" font-size="8" fill="white" text-anchor="middle">01</text><circle cx="981.3333333333334" cy="380" r="7" fill="#4f46e5"/><text x="981.3333333333334" y="384" class="mono" font-size="8" fill="white" text-anchor="middle">07</text><circle cx="981.3333333333334" cy="358" r="7" fill="#4f46e5"/><text x="981.3333333333334" y="362" class="mono" font-size="8" fill="white" text-anchor="middle">08</text><circle cx="981.3333333333334" cy="336" r="7" fill="#4f46e5"/><text x="981.3333333333334" y="340" class="mono" font-size="8" fill="white" text-anchor="middle">09</text><circle cx="981.3333333333334" cy="314" r="7" fill="#d97706"/><text x="981.3333333333334" y="318" class="mono" font-size="8" fill="white" text-anchor="middle">03</text><circle cx="1050.6666666666665" cy="380" r="7" fill="#475569"/><text x="1050.6666666666665" y="384" class="mono" font-size="8" fill="white" text-anchor="middle">04</text><circle cx="1050.6666666666665" cy="358" r="7" fill="#475569"/><text x="1050.6666666666665" y="362" class="mono" font-size="8" fill="white" text-anchor="middle">05</text><circle cx="1050.6666666666665" cy="336" r="7" fill="#A32D2D"/><text x="1050.6666666666665" y="340" class="mono" font-size="8" fill="white" text-anchor="middle">04</text><circle cx="1120.0" cy="380" r="7" fill="#4f46e5"/><text x="1120.0" y="384" class="mono" font-size="8" fill="white" text-anchor="middle">01</text><circle cx="1120.0" cy="358" r="7" fill="#4f46e5"/><text x="1120.0" y="362" class="mono" font-size="8" fill="white" text-anchor="middle">10</text>

  <circle cx="60" cy="540" r="5" fill="#4f46e5"/><text x="72" y="545" class="mono text-2" font-size="11">A — Meta</text><circle cx="180" cy="540" r="5" fill="#0d9488"/><text x="192" y="545" class="mono text-2" font-size="11">B — Google</text><circle cx="300" cy="540" r="5" fill="#475569"/><text x="312" y="545" class="mono text-2" font-size="11">C — Apple / MS / LinkedIn</text><circle cx="510" cy="540" r="5" fill="#d97706"/><text x="522" y="545" class="mono text-2" font-size="11">D — Amazon / Uber</text><circle cx="660" cy="540" r="5" fill="#A32D2D"/><text x="672" y="545" class="mono text-2" font-size="11">E — TikTok / X / Clearview / Zoom</text>


  <line x1="60" y1="625" x2="1140" y2="625" stroke="rgba(0,0,0,0.1)" stroke-width="0.5"/>
  <text x="60" y="650" class="mono text-3" font-size="11">matryca.org · educational material, free to reuse · 2026</text>
  <text x="1140" y="650" class="mono text-3" font-size="11" text-anchor="end">Chronology of 33 cases</text>
</svg>
